<?xml version="1.0" encoding="UTF-8"?>
<!DOCTYPE svg PUBLIC "-//W3C//DTD SVG 1.1//EN" "http://www.w3.org/Graphics/SVG/1.1/DTD/svg11.dtd">
<svg xmlns="http://www.w3.org/2000/svg" version="1.1" width="96px" height="96px" style="shape-rendering:geometricPrecision; text-rendering:geometricPrecision; image-rendering:optimizeQuality; fill-rule:evenodd; clip-rule:evenodd" xmlns:xlink="http://www.w3.org/1999/xlink">
<g><path style="opacity:0.951" fill="#2d7ad4" d="M 46.5,27.5 C 46.5,27.8333 46.5,28.1667 46.5,28.5C 45.5,29.8333 44.5,31.1667 43.5,32.5C 32.0173,28.5613 20.6839,24.2279 9.5,19.5C 9.33003,18.1779 9.66337,17.0113 10.5,16C 12.5,15.3333 14.5,15.3333 16.5,16C 26.4211,20.1308 36.4211,23.9641 46.5,27.5 Z"/></g>
<g><path style="opacity:0.983" fill="#62676c" d="M 69.5,37.5 C 63.0597,36.0565 58.393,32.3898 55.5,26.5C 54.6276,18.8831 57.9609,14.8831 65.5,14.5C 65.6263,11.405 67.293,9.57169 70.5,9C 74.7514,7.80539 79.0848,7.30539 83.5,7.5C 83.7135,9.14387 83.3802,10.6439 82.5,12C 78.1182,12.0243 74.1182,13.191 70.5,15.5C 71.3279,16.4147 72.3279,17.0814 73.5,17.5C 77.9966,15.7829 82.6632,15.1162 87.5,15.5C 87.762,16.9778 87.4287,18.3112 86.5,19.5C 82.9486,19.9521 79.6152,20.9521 76.5,22.5C 78.5543,27.0434 78.8877,31.7101 77.5,36.5C 74.9159,37.3928 72.2492,37.7261 69.5,37.5 Z"/></g>
<g><path style="opacity:0.982" fill="#29b0e9" d="M 9.5,19.5 C 20.6839,24.2279 32.0173,28.5613 43.5,32.5C 46.1827,33.6695 47.3494,35.6695 47,38.5C 44.0614,39.1281 41.2281,39.7948 38.5,40.5C 35.7938,40.5751 33.1272,40.9084 30.5,41.5C 26.3197,42.0436 22.153,42.7102 18,43.5C 13.5231,43.2671 10.1898,41.2671 8,37.5C 6.15437,31.9481 5.4877,26.2814 6,20.5C 7.01127,19.6634 8.17793,19.33 9.5,19.5 Z"/></g>
<g><path style="opacity:0.975" fill="#f1bb34" d="M 55.5,26.5 C 58.393,32.3898 63.0597,36.0565 69.5,37.5C 71.0728,42.0854 70.7395,46.4188 68.5,50.5C 57.4453,46.7787 50.1119,39.4454 46.5,28.5C 46.5,28.1667 46.5,27.8333 46.5,27.5C 49.4299,26.701 52.4299,26.3677 55.5,26.5 Z"/></g>
<g><path style="opacity:0.978" fill="#545452" d="M 46.5,28.5 C 50.1119,39.4454 57.4453,46.7787 68.5,50.5C 67.015,53.0827 64.6817,54.416 61.5,54.5C 52.7108,54.046 46.7108,49.7127 43.5,41.5C 41.9547,40.5481 40.288,40.2148 38.5,40.5C 41.2281,39.7948 44.0614,39.1281 47,38.5C 47.3494,35.6695 46.1827,33.6695 43.5,32.5C 44.5,31.1667 45.5,29.8333 46.5,28.5 Z"/></g>
<g><path style="opacity:0.991" fill="#f6c341" d="M 38.5,40.5 C 40.288,40.2148 41.9547,40.5481 43.5,41.5C 46.7108,49.7127 52.7108,54.046 61.5,54.5C 61.8182,59.0323 61.4849,63.3656 60.5,67.5C 44.4116,66.4074 34.4116,58.0741 30.5,42.5C 30.5,42.1667 30.5,41.8333 30.5,41.5C 33.1272,40.9084 35.7938,40.5751 38.5,40.5 Z"/></g>
<g><path style="opacity:0.989" fill="#5b5b59" d="M 30.5,42.5 C 34.4116,58.0741 44.4116,66.4074 60.5,67.5C 60.1379,71.2592 58.8046,74.5925 56.5,77.5C 39.1785,77.8495 27.8451,69.8495 22.5,53.5C 22.989,48.1679 25.6557,44.5013 30.5,42.5 Z"/></g>
<g><path style="opacity:0.942" fill="#fcca4e" d="M 22.5,53.5 C 27.8451,69.8495 39.1785,77.8495 56.5,77.5C 52.8953,83.1094 47.8953,86.7761 41.5,88.5C 25.445,82.0538 19.1116,70.3871 22.5,53.5 Z"/></g>
</svg>
